<svg id="Capa_1" enable-background="new 0 0 1227 1227" viewBox="0 0 1227 1227" xmlns="http://www.w3.org/2000/svg"><path d="m654.53 592.55 276.12 394.95h-113.32l-225.32-322.28v-.02l-33.08-47.31-263.21-376.5h113.32l212.41 303.85z"/><path d="m1094.42 0h-961.84c-73.22 0-132.58 59.36-132.58 132.58v961.84c0 73.22 59.36 132.58 132.58 132.58h961.84c73.22 0 132.58-59.36 132.58-132.58v-961.84c0-73.22-59.36-132.58-132.58-132.58zm-311.8 1040.52-228.01-331.84-285.47 331.84h-73.78l326.49-379.5-326.49-475.17h249.02l215.91 314.23 270.32-314.23h73.78l-311.33 361.9h-.02l338.6 492.77z"/><g/><g/><g/><g/><g/><g/><g/><g/><g/><g/><g/><g/><g/><g/><g/></svg>