<?xml version="1.0" encoding="utf-8"?>
<!-- Generator: Adobe Illustrator 28.1.0, SVG Export Plug-In . SVG Version: 6.00 Build 0)  -->
<svg version="1.1" id="Layer_1" xmlns:xodm="http://www.corel.com/coreldraw/odm/2003"
	 xmlns="http://www.w3.org/2000/svg" xmlns:xlink="http://www.w3.org/1999/xlink" x="0px" y="0px" viewBox="0 0 311 320"
	 style="enable-background:new 0 0 311 320;" xml:space="preserve">
<style type="text/css">
	.st0{fill-rule:evenodd;clip-rule:evenodd;fill:#020f25;}
</style>
<g id="full_logo">
	<path id="short_logo" class="st0" d="M221.3,90.1c1.6,7,3.1,11.8,5.9,19.1c-1.1,4.3-5.6,7.2-10.9,10.7c-9.3,6-18.7,12.7-28.4,17.1
		c-0.2,0.1-3-10.4-3.3-11.5L221.3,90.1z M208.7,51.9c0.5,2.8-0.3,7.2-1.3,9.6c-1.1,2.4-2.3,5.3-2.7,6.3c-0.4,0.9,4-0.7,7.1-6
		c2.3-3.8,2.5-8,1.9-10.4c0.3-0.1,2.1-0.3,2.4-0.4c0.5,3.1,0.6,7.8-0.4,11.2c-0.8,2.5-1.7,4.7-2.1,5.6c-0.3,0.7,3.4-0.1,6.2-5.3
		c1.7-3.1,2.3-7.8,0.8-14.4c0.2-0.3,1.4-1.5,1.6-1.8c0.6,1.6,1.2,2.7,1.3,4.4c0.3,3.7-0.1,7.2,0.4,8.7c0.3,1,4-3.8,3.4-10
		c-0.6-6.7-5.4-12.9-5.5-14.7c-0.1-2.6-3.2-5.1-8.7-4.9c-5.4,0.2-20.1,4.4-21.9,23.7C199.8,50.3,203.6,51.8,208.7,51.9L208.7,51.9z
		 M285.9,158.8c-5.8,11.1-11.9,22.9-13.3,25.9c-4.5,9.7-8.8,20.1-12.8,30.6c-22.5,58.7-75.3,125.2-138.7,98.4
		c-3.9-1.7-8-3.6-11.5-5.9c-20.8-13.4-51-49.4-60.7-81.8l-2.7-13.3c0,0,21-25,31.7-28.4c3.2-1,2.9,4.5,1.4,7.6l11.6,9.1
		c9.3,6.9,24.3,13.7,39.2,16.6c-0.1-0.1-12-7-12.2-7.2l-15.2-10.9c10.8-9.3,17.7-13.5,28.7-22.5c4.9,2.6,8.1,4.2,12.7,6.9
		c12.2,7.1,59.3,24.4,74.2,2.6c-15,13-43.5,3.1-61.4-5.8c-14.7-7.3-23.5-14.4-41.1-20.9c-4.5-1.7-6.1-2.3-11.3-6.2
		c-4.3-3.3-9-7-12.4-11.3c-1.3-1.9-2-3.7-2-5.4c0-1.4,0.3-2.7,0.9-3.9c0.7-1.3,1.6-2.5,2.8-3.5c2.8-2.5,6.2-3.9,8.8-4
		c3.9-0.1,10.2,3.9,14,6.1c7.9,4.7,16.8,9.3,26.7,11.6c11.5,2.7,30.4,5.1,41.7,5.9c6.2,0.4,16.3-1.1,18-2.5
		c-2.5,0.5-12.4-0.5-22.4-2.3c13.7-5.4,24.9-10.2,38.4-18.5c10-6.1,14.5-8.9,15.3-22.8c1.5-27.8,42.9-47,69-15.4
		c6.6,8,8,14,7.6,24.4C310.1,130.8,288.9,153.6,285.9,158.8L285.9,158.8z M243.2,99.6c5,0.7,10.1,0.9,15.1,0.6
		c5.2-0.3,7.2-2.9,7.5-5c0.2-2.7-1.4-5.3-4-6.2c-6.3-2.3-13,1.6-16.4,4.2c-0.5,0.3-1.2,0.5-1-0.3c1.9-4.2,5.5-7.4,9.9-8.9
		c11.2-5.5,33.4-0.4,41.8,9.5c3.3,3.2,5.1,7.7,5,12.2c0,0.3-0.2,0.4-0.5,0.4c-0.3-0.3-0.5-0.4-0.6-0.6c-1.9-3.8-6.1-10.1-12.8-10.8
		c-2.7-0.3-5.3,1.2-6.2,3.8c-0.7,2.1,0,5.2,4.5,7.7c4.3,2.4,8.9,4.4,13.7,6c0.2,0,0.3,0.3,0.5,0.3c-3.9,12.5-16.1,16.4-26.1,21.4
		c-10.5,5.2-9.8,4.1-17.4-4.4c-7.3-8.2-15.7-17.4-13.7-30.2C242.8,99.7,243,99.6,243.2,99.6z M262.8,103.1c0.9-1.9,3.1-3,5.1-2.3
		l7.6,2c2,0.6,3.4,2.4,3.3,4.6c-0.2,1.5-1.1,3.2-4.1,4.3l-5.5,1.7c-0.4,0.2-0.9,0.1-1.3-0.3l-3.9-4.2
		C262.2,106.4,262.1,104.5,262.8,103.1L262.8,103.1z M86.8,149.4L86.8,149.4c-0.6-0.7-1.2-1.4-1.7-2C57,169.6,31,192.2,0.8,227.7
		c-0.9,1-1.1,2.4-0.5,3.6c8.1,17.2,4.1,29.3,22.8,45.6c10.2-12.7,15.4-19.4,23.8-29.4c-4.6-10-9.5-24.7-10.7-34.6
		c-0.2-1.5,0.4-3,1.4-4c1.9-2.1,28.3-29.5,39.2-31.8c6.3-1.4,14.9,2.2,11,9.9l9.4,7.9c9.7-8.5,17.2-13.8,27.6-22.4l-16.2-6.9
		C102.3,163.3,90.7,153.7,86.8,149.4L86.8,149.4z M270.8,26.1c-7.9-17.5-13-10.9-19.2-24.9c-0.2-0.5-0.7-0.9-1.3-1s-1.1,0-1.5,0.4
		c-9.1,8.8-16,15.4-24.8,24.3c6.8,4.3,4.4,9.9,6.2,12.1c4.7,5.7,3.1,18.1-2.1,24.2l-2.3,1.9l-0.7,0.2c-0.9,4.8-12.4,12.2-16.6,8.1
		c-0.5,0.2-1,0.3-1.4,0.4c-10.8,2.4-6.8-7.2-5.1-10.6l0,0c3.3-7.7-7.7-3.2-10.6-2c-0.6,0.3-1.3,0.4-1.9,0.4
		c-3.7,3.7-5.6,6.1-9.3,9.7c-21.8,21-40.7,35.5-62.6,52.5c12.8,7.1,13.6,8.2,29.2,12.9c1.9,0.6,8.6,2.1,16.8,3.8
		C205,100.8,236.9,65,270.8,26.1L270.8,26.1z"/>
</g>
</svg>
