
<svg id="Слой_2" data-name="Слой 2" xmlns="http://www.w3.org/2000/svg" xmlns:xlink="http://www.w3.org/1999/xlink" viewBox="0 0 455.34 235.1"><defs><style>.cls-1,.cls-12,.cls-13,.cls-2,.cls-24,.cls-27,.cls-28,.cls-29,.cls-5{fill:none;}.cls-2{stroke:#506336;stroke-width:0.81px;}.cls-12,.cls-13,.cls-2,.cls-24,.cls-27,.cls-28,.cls-29,.cls-5{stroke-miterlimit:10;}.cls-3{fill:#506336;}.cls-4{clip-path:url(#clip-path);}.cls-5{stroke:#364222;stroke-width:0.57px;}.cls-12,.cls-13,.cls-27,.cls-28,.cls-5{stroke-linecap:round;}.cls-6{fill:#513d30;}.cls-7{fill:#222322;}.cls-8{fill:#313330;}.cls-9{fill:#3a3c39;}.cls-10{fill:#6d5241;}.cls-11{fill:#8c6f60;}.cls-12{stroke:#313330;stroke-width:0.76px;}.cls-13{stroke:#201600;stroke-width:0.73px;}.cls-14{fill:#3f3f3f;}.cls-15{opacity:0.2;}.cls-16{clip-path:url(#clip-path-2);}.cls-17{fill:#fdfdfd;}.cls-18{fill:#798e44;}.cls-19{fill:#9ab7c1;}.cls-19,.cls-21,.cls-23,.cls-25,.cls-26,.cls-27,.cls-28{opacity:0.5;}.cls-20{fill:#e9eef2;}.cls-21{fill:#a8c4cc;}.cls-22{fill:#fff;opacity:0.75;}.cls-24{stroke:#9ab7c1;stroke-width:0.48px;}.cls-25{fill:#d6e2ea;}.cls-26{font-size:5.35px;fill:#446577;font-family:ArialMT, Arial;}.cls-27,.cls-28,.cls-29{stroke:#a8c4cc;}.cls-27{stroke-width:0.76px;}.cls-28{stroke-width:0.75px;}.cls-29{stroke-width:0.57px;}</style><clipPath id="clip-path" transform="translate(-83.53 -33.67)"><path class="cls-1" d="M225.43,105.55s9.86,3.7,6.31,10.73C231.74,116.28,225.22,114.54,225.43,105.55Z"/></clipPath><clipPath id="clip-path-2" transform="translate(-83.53 -33.67)"><rect class="cls-1" x="255.57" y="72.28" width="32.11" height="15.81" rx="3.5" ry="3.5" transform="translate(-11.59 81.41) rotate(-16.69)"/></clipPath></defs><title>launching the demo</title><path class="cls-2" d="M238.63,121.45s-1.71-5.54-7.06-5.45" transform="translate(-83.53 -33.67)"/><path class="cls-3" d="M225.43,105.55s9.86,3.7,6.31,10.73C231.74,116.28,225.22,114.54,225.43,105.55Z" transform="translate(-83.53 -33.67)"/><path class="cls-3" d="M231.67,115.93c.06-.81-5.81-1-8.94,5.79C222.72,121.72,231.27,121.68,231.67,115.93Z" transform="translate(-83.53 -33.67)"/><g class="cls-4"><path class="cls-5" d="M225.13,105.23A32.07,32.07,0,0,1,231.57,116" transform="translate(-83.53 -33.67)"/></g><path class="cls-6" d="M252.38,241.36c0,9,4.93,23.21,4.93,23.21,11.45,2.89,30.9,1.93,30.9,0,0-1.6-3.24-3-4.32-3.48a.34.34,0,0,1-.17-.47L295.86,237Z" transform="translate(-83.53 -33.67)"/><rect class="cls-7" x="258.75" y="136.25" width="7.5" height="2.15" rx="0.38" ry="0.38"/><rect class="cls-7" x="261.49" y="138.19" width="2" height="5.02"/><path class="cls-8" d="M352.11,173.3s1-1.28,1.22.76-1.26,7.32-5.64,9.36-5.47,2-9.87,2.28l.38-4.65,3.11-.36A12.46,12.46,0,0,0,350.8,175Z" transform="translate(-83.53 -33.67)"/><path class="cls-9" d="M338.37,176.55s6.41,3.51,12.48-4.72c0,0,1-1.29,1.34.28s.64,4.89-3.42,7.86-10.28,2.13-10.28,2.13Z" transform="translate(-83.53 -33.67)"/><path class="cls-9" d="M335.17,175.31s2.64-4,10.61-4.75c0,0,1.38.06.59-1s-4-2.52-7.59-1.66a37.54,37.54,0,0,0-8.21,3.27Z" transform="translate(-83.53 -33.67)"/><path class="cls-8" d="M348.2,118.68s11-8,10.43-10.33-15.1,8.53-15.1,8.53Z" transform="translate(-83.53 -33.67)"/><path class="cls-10" d="M293.92,238.31s24.25-7.87,25-30.37-13.75-46.5-13.75-46.5-15-32.75-16.5-48L287,98.56s.13.88,1.13.25-.62-13-2-16.12-6.33-12.75-11.25-13.17c0,0,2.24-.75,1.25-1.5-5.58-4.25-15.4.17-15.4.17s-7.18-3.67-8.35-1.67c0,0,.25,1.75,2.75,2.33-2.7.42-11.37,3.1-12,6.95a.81.81,0,0,0,.69.95,3.49,3.49,0,0,0,1.76-.48S238.21,82,239.48,88a.63.63,0,0,0,.88.43c.35-.17.58-.25,1-1.17,0,0,2.23,14.27-1.94,23.94s-14,27.17-14,27.17-4.83,8.83-4,10.25,2.92-1,2.92-1-10.92,25.92-8.25,52.75c0,0,.5,8.17,2.67,10.5a3.19,3.19,0,0,0,.83-2.5s3.17,21,13.84,40.83l8.14,15.16a4.63,4.63,0,0,0,3,2.32c4.92,1.16,17.53,3.65,25,.78,0,0,2.2-.68,1-1.93a6.62,6.62,0,0,0-2.74-1.51.42.42,0,0,1-.27-.57l8.09-19.13S289.76,240.07,293.92,238.31Z" transform="translate(-83.53 -33.67)"/><path class="cls-6" d="M297.08,145.53A156.19,156.19,0,0,0,323,128.18c8.45-7.15,14.33-10.45,17.51-11.81a7.53,7.53,0,0,1,5.37-.2c2.07.7,4.74,1.86,5.28,3.35.92,2.5-2.08,8.92-2.08,8.92s-5.67,8.83-7.5,9.5c0,0-.75.42-.67-.92,0,0-10.92,17.92-12.92,17.5,0,0-.67-.08-.33-1.5,0,0-9.78,16.57-18.83,20.5l-7.5-15.17Z" transform="translate(-83.53 -33.67)"/><path class="cls-11" d="M291.55,239.21a123.25,123.25,0,0,1-16,5c-11.07-9.92-8.67-27.67-6.22-34.34s2.55-29.66,2.55-29.66c-2.33-22-5-42.67,1.67-54.67,3.34-6,7.69-6.44,11.22-5.38a11.28,11.28,0,0,1,7.38,7.62c4.77,15.57,13,33.34,13,33.34s14.5,24,13.75,46.5c-.58,17.31-14.56,26.08-21.21,29.15-2,.92-3,1.3-3,1.3Z" transform="translate(-83.53 -33.67)"/><path class="cls-10" d="M264.8,146.93s10.75,17.82,23.5,20.41,41.5-1.24,48.5,6.17c0,0,4.88,3.92,4.38,7.42s-2.37,5-5.87,6.25-39.87,10.13-43.62,9.38c0,0-3,.38-1.25-1.37,0,0-13.62,2.13-15.5.63,0,0-1.12-.62-.25-1.5,0,0-18.12-.5-25.62-18.75Z" transform="translate(-83.53 -33.67)"/><path class="cls-12" d="M271.49,193.9a29.84,29.84,0,0,1-22.44-18.34" transform="translate(-83.53 -33.67)"/><path class="cls-12" d="M264.8,146.93a66.51,66.51,0,0,0,5,6.94" transform="translate(-83.53 -33.67)"/><path class="cls-3" d="M538.74,261.81c-1.41-4.52-14.66-4.59-22.05-4.26,2.23-.38,4.38-1.18,4.38-2.87,0-3.52-14.23-2.91-14.23-2.91s8.84-5.63,4.94-8.76-13,0-13,0,18.36-15.35,7.07-21.51c-6.3-3.44-16.11.86-23.56,5.34,3.84-5.86,7-13.72,2.95-20.33-7.62-12.33-27,18.86-27,18.86l3,13.09L460,239l-14,28.37s39.27,0,56.65,0S540.7,268.12,538.74,261.81Z" transform="translate(-83.53 -33.67)"/><path class="cls-11" d="M283.72,84.28a.2.2,0,0,1,.28.05c1.25,2.08,1.3,8.28.79,8.36s-1.29-.85-1.29-.85c1.87,5.45-1.59,12-1.95,12.09s-1.1-.79-1.1-.79a10.8,10.8,0,0,1-1.92,4.88c-2.24.15-5.27-3-5.27-3s.35,1.37-.33,1.34c-5.31-.25-11.85-8.3-11.85-8.3a1.43,1.43,0,0,1-.56,1.43c-2.16-.61-4.49-6.74-5.18-8.65a.46.46,0,0,1,.43-.6,21,21,0,0,0,7.41-1.8c3.51-1.75,3.6-5.8-.19-7-3-.91-6.52,1.32-7.88,2.31a.25.25,0,0,1-.39-.26c.66-1.87,2.31-6.76,14.3-8.83,0,0,8.15-1.87,12.63,3.07a.15.15,0,0,1-.12.25,6.48,6.48,0,0,0-3.83,1.07c-1.21,1.06-1.34,4.63,2.3,5.41A5,5,0,0,0,283.72,84.28Z" transform="translate(-83.53 -33.67)"/><path class="cls-8" d="M276.13,84.36a2,2,0,0,0-2.25-1.28l-1.61.43-1.61.43a2,2,0,0,0-1.31,2.24,3.06,3.06,0,0,0,1.86,2.27l2.36,1a.44.44,0,0,0,.54-.14l1.55-2A3.06,3.06,0,0,0,276.13,84.36Z" transform="translate(-83.53 -33.67)"/><path class="cls-13" d="M272.32,91.55s1.77,1.77,3.4-.68" transform="translate(-83.53 -33.67)"/><path class="cls-8" d="M348.27,121.12s-6.48-4.75-9.45-5.11a10.92,10.92,0,0,0-2.54,2.3C335.73,119.26,348.13,122.43,348.27,121.12Z" transform="translate(-83.53 -33.67)"/><path class="cls-8" d="M341.65,126.33c2-.57,8.46-2.54,11.4-4.42a1.74,1.74,0,0,0,.78-1.58,3.89,3.89,0,0,0-.92-2.57c-.72-.67-9.88,5.64-11.62,8A.38.38,0,0,0,341.65,126.33Z" transform="translate(-83.53 -33.67)"/><path class="cls-3" d="M133.25,265.25c1.54-2-5.41-35.07-21-34.55-16.77.56-3.61,21.44-3.61,21.44s-6.14-10-12.69-6.07,1.43,12.52,1.43,12.52-14.87-3.41-13.77,3C84.62,267.63,129.26,265.26,133.25,265.25Z" transform="translate(-83.53 -33.67)"/><path class="cls-3" d="M383.69,246.46s-8.64-6.92-10.58-2.24,1.56,9.72,1.56,9.72-5.58-1.12-8,3.93c0,0-11.5-3.37-14,3s8.83,6.54,8.83,6.54h22.14l5.78-13.28Z" transform="translate(-83.53 -33.67)"/><rect class="cls-8" x="251.9" y="73.38" width="32.11" height="15.81" rx="3.5" ry="3.5" transform="translate(-95.59 46.73) rotate(-16.69)"/><rect class="cls-14" x="255.57" y="72.28" width="32.11" height="15.81" rx="3.5" ry="3.5" transform="translate(-95.11 47.74) rotate(-16.69)"/><g class="cls-15"><g class="cls-16"><polygon class="cls-17" points="187.77 57.54 180.47 59.73 185.65 35.45 192.95 33.26 187.77 57.54"/><polygon class="cls-17" points="192.59 55.44 191.15 55.87 196.18 32.29 197.62 31.86 192.59 55.44"/></g></g><ellipse class="cls-14" cx="254.41" cy="85.35" rx="0.63" ry="1.45" transform="translate(-97.32 43.01) rotate(-16.69)"/><path class="cls-14" d="M252,83.91s-8.78,3.39-10.94,4.94a.31.31,0,0,0-.12.28l.27,3.77a.33.33,0,0,0,.47.27c1.88-.91,9.31-4.46,11.53-5.13Z" transform="translate(-83.53 -33.67)"/><path class="cls-18" d="M407.71,231s-.66-16,5-23.95c3.88-5.43,11.33-4.25,13.94,2.08,1.49,3.61,2.67,4.42,2.28,12.82,0,0,7-18.44,16.65-14.27s7.5,12.66,7.5,12.66,6.23-8.36,10.28-4.32a9.36,9.36,0,0,1,2.28,9.22s8.1-14,15.45-5.83-5.32,24.25-5.32,24.25,8.36-4.89,9.62,0-4.05,10.11-4.05,10.11,13.67-8.58,18.23-.85a8.07,8.07,0,0,1-.14,8.53,11.4,11.4,0,0,1-9.88,5.91h-107c-2.64,0-6.13-.19-8.28-1.93a7.05,7.05,0,0,1-1.61-8.75c4.1-7.8,12.41-2.14,12.41-2.14s-9.37-8.57-2.79-15.76,15.7,1.65,15.7,1.65-3.55-9.14,1.27-12.3S407.71,231,407.71,231Z" transform="translate(-83.53 -33.67)"/><path class="cls-19" d="M433.7,72.9S431,70,424.63,70.69a.13.13,0,0,0-.12.13V127.2s4.1,1.75,5.64,3.38Z" transform="translate(-83.53 -33.67)"/><path class="cls-20" d="M426.62,77.86v63.63a.21.21,0,0,0,.31.18c1.26-.78,5.92-3.81,6.68-6.11a.24.24,0,0,0,0-.07l.08-62.6a.21.21,0,0,0-.39-.1,9.32,9.32,0,0,1-6.53,4.86A.21.21,0,0,0,426.62,77.86Z" transform="translate(-83.53 -33.67)"/><path class="cls-20" d="M364.95,138.95v32.46c15.65-.81,29.74-4,40.5-8.87V132.61C394.69,136.06,380.6,138.37,364.95,138.95Z" transform="translate(-83.53 -33.67)"/><path class="cls-21" d="M399.37,137.07v3a158.25,158.25,0,0,1-26.5,4.15v-3A157.17,157.17,0,0,0,399.37,137.07Z" transform="translate(-83.53 -33.67)"/><path class="cls-22" d="M384.2,147.87v14.41a131.51,131.51,0,0,1-14.68,2v-15c1.13-.06,2.24-.13,3.35-.22C376.78,148.79,380.57,148.38,384.2,147.87Z" transform="translate(-83.53 -33.67)"/><g class="cls-23"><path class="cls-24" d="M388.74,161.27a99.25,99.25,0,0,0,12.8-3.94" transform="translate(-83.53 -33.67)"/><path class="cls-24" d="M388.74,158.66a99.25,99.25,0,0,0,12.8-3.94" transform="translate(-83.53 -33.67)"/><path class="cls-24" d="M388.74,155.63a99.25,99.25,0,0,0,12.92-3.51" transform="translate(-83.53 -33.67)"/><path class="cls-24" d="M388.74,152.6a99.25,99.25,0,0,0,13-3.09" transform="translate(-83.53 -33.67)"/><path class="cls-24" d="M388.74,147.14c3.71-.63,7.23-1.37,10.52-2.21l2.41-.64" transform="translate(-83.53 -33.67)"/><path class="cls-24" d="M388.74,149.75c3.71-.63,7.23-1.37,10.52-2.21l2.41-.64" transform="translate(-83.53 -33.67)"/></g><path class="cls-25" d="M320.76,74.61a131,131,0,0,0-16,3.5v20a131,131,0,0,1,16-3.5q5-.78,10.34-1.32v-20Q325.73,73.82,320.76,74.61Z" transform="translate(-83.53 -33.67)"/><path class="cls-25" d="M352.47,33.67c-10.73,0-20.89.45-30,1.26-3.51.31-6.86.68-10,1.1V70.69c3.45-.83,7.15-1.57,11-2.19,4.75-.75,9.78-1.33,15-1.71,4.8-.36,9.79-.54,14.92-.54,1.71,0,3.41,0,5.08.06V33.72C356.58,33.69,354.53,33.67,352.47,33.67Z" transform="translate(-83.53 -33.67)"/><text class="cls-26" transform="translate(235.9 25.94) rotate(-7.04)">S</text><text class="cls-26" transform="translate(239.43 25.52) rotate(-6.16)">I</text><text class="cls-26" transform="matrix(1, -0.09, 0.09, 1, 240.9, 25.34)">M</text><text class="cls-26" transform="matrix(1, -0.07, 0.07, 1, 245.31, 24.95)">U</text><text class="cls-26" transform="translate(249.14 24.7) rotate(-2.84)">L</text><text class="cls-26" transform="matrix(1, -0.03, 0.03, 1, 252.11, 24.55)">A</text><text class="cls-26" transform="matrix(1, -0.02, 0.02, 1, 255.28, 24.44)">T</text><text class="cls-26" transform="translate(258.51 24.38) rotate(-0.53)">I</text><text class="cls-26" transform="translate(260 24.36) rotate(0.27)">O</text><text class="cls-26" transform="translate(264.13 24.38) rotate(1.34)">N</text><text class="cls-26" transform="translate(234.46 18.05) rotate(-7.67)"> </text><text class="cls-26" transform="translate(235.92 17.85) rotate(-7.14)"> </text><text class="cls-26" transform="translate(237.38 17.67) rotate(-6.63)"> </text><text class="cls-26" transform="matrix(0.99, -0.11, 0.11, 0.99, 238.86, 17.5)"> </text><text class="cls-26" transform="translate(240.31 17.33) rotate(-5.22)">R</text><text class="cls-26" transform="translate(244.13 16.98) rotate(-3.99)">O</text><text class="cls-26" transform="translate(248.26 16.7) rotate(-2.81)">C</text><text class="cls-26" transform="translate(252.11 16.51) rotate(-1.75)">K</text><text class="cls-26" transform="matrix(1, -0.02, 0.02, 1, 255.67, 16.4)">E</text><text class="cls-26" transform="translate(259.22 16.34) rotate(0.06)">T</text><path class="cls-21" d="M350.5,37.63v2.86c-10,.09-19.48.56-28,1.35l-1.66.16V39.14L322.5,39C331,38.2,340.49,37.72,350.5,37.63Z" transform="translate(-83.53 -33.67)"/><path class="cls-25" d="M403,55.47h0a276.85,276.85,0,0,1-40.8,3.35c-2,0-4.06,0-6.12,0-4.76,0-9.4-.09-13.88-.26v67.81h.16c4.43.29,9,.45,13.72.45,16.71,0,32-2,44.06-5.22h0a87.68,87.68,0,0,0,8.5-2.75c1.34-.5,2.61-1,3.8-1.58V53.5C409.66,54.22,406.5,54.88,403,55.47Z" transform="translate(-83.53 -33.67)"/><path class="cls-21" d="M401.12,60.3v4.86a283.56,283.56,0,0,1-38.92,3c-1.73,0-3.48,0-5.25,0V63.39c1.77,0,3.52,0,5.25,0A282.12,282.12,0,0,0,401.12,60.3Z" transform="translate(-83.53 -33.67)"/><path class="cls-22" d="M362.75,74.59c-2.1,0-4.25,0-6.4,0-2,0-4,0-5.89,0v42.8c1.94,0,3.9.08,5.89.08a218,218,0,0,0,23.44-1.23V74C374.36,74.28,368.66,74.5,362.75,74.59Z" transform="translate(-83.53 -33.67)"/><path class="cls-22" d="M404.48,89.91v21c-1.39.45-2.83.87-4.33,1.28h0A125.4,125.4,0,0,1,387.45,115V92.15c5.73-.54,11-1.22,15.71-2h0Z" transform="translate(-83.53 -33.67)"/><g class="cls-23"><path class="cls-24" d="M387.45,88.61c5.73-.54,11-1.22,15.71-2h0l1.31-.22" transform="translate(-83.53 -33.67)"/><path class="cls-24" d="M387.45,85.7c5.73-.54,11-1.22,15.71-2h0l1.31-.22" transform="translate(-83.53 -33.67)"/><path class="cls-24" d="M387.45,82.81c5.73-.54,11-1.22,15.71-2h0l1.31-.22" transform="translate(-83.53 -33.67)"/><path class="cls-24" d="M387.45,73.8c5.73-.54,11-1.22,15.71-2h0l1.31-.22" transform="translate(-83.53 -33.67)"/><path class="cls-24" d="M387.45,77c5.73-.54,11-1.22,15.71-2h0l1.31-.22" transform="translate(-83.53 -33.67)"/><path class="cls-24" d="M387.45,79.92c5.73-.54,11-1.22,15.71-2h0l1.31-.22" transform="translate(-83.53 -33.67)"/></g><path class="cls-27" d="M297.08,176.25a362.07,362.07,0,0,0,44.14,2.56c51.43,0,93.12-9.63,93.12-21.5,0-2-1.2-4-3.43-5.8" transform="translate(-83.53 -33.67)"/><path class="cls-28" d="M285.09,177.19a261.26,261.26,0,0,0,39.11,4.61" transform="translate(-83.53 -33.67)"/><path class="cls-28" d="M300.77,102.44a220.85,220.85,0,0,1,37.82-4.81" transform="translate(-83.53 -33.67)"/><path class="cls-28" d="M297.08,106.5a174.39,174.39,0,0,1,23.06-4.11" transform="translate(-83.53 -33.67)"/><path class="cls-18" d="M132.94,265.66c-8.14,0-16.45-.39-23.29-4.23-3.78-2.13-10.11-10-4.76-15.71,0,0,6-11.63,24.43,5.27,0,0-8.61-9-4.19-10.18s8.61,5.29,8.61,5.29-13.17-25.85,3.58-25.43S159.8,251,159.8,251s-4-20,8.38-16.49S178.65,253,178.65,253s3-12.83,9.07-9.37-1.86,13.78-1.86,13.78,14.19-15.61,19.31-5.84c2.56,4.89-1,8.4-5.29,10.69a29.55,29.55,0,0,1-14,3.36Z" transform="translate(-83.53 -33.67)"/><g class="cls-23"><path class="cls-29" d="M373.71,101.5c-.13.66-.27,1.32-.44,2-.08.31-.16.61-.25.91-.17.58-.35,1.16-.55,1.71a15.49,15.49,0,0,1-6.74,1.44,15,15,0,0,1-6.75-1q-.3-.81-.56-1.67c-.09-.29-.17-.58-.25-.88h0c-.17-.63-.32-1.27-.44-1.93-1-5-.6-9.6.78-12.57a24.62,24.62,0,0,1,3.56-5.77,22.84,22.84,0,0,0,3.61.16,23.23,23.23,0,0,0,3.52-.37A26.91,26.91,0,0,1,372.89,89C374.28,91.86,374.67,96.43,373.71,101.5Z" transform="translate(-83.53 -33.67)"/><path class="cls-29" d="M372.47,106.08q-.21.6-.44,1.17a25.34,25.34,0,0,1-1.09,2.36,11.46,11.46,0,0,1-5.22,1.27,13.93,13.93,0,0,1-3.14-.24l-.64-.15a6.93,6.93,0,0,1-1.38-.51h0a25.07,25.07,0,0,1-1.13-2.35q-.21-.5-.4-1l0-.09.09,0a8.76,8.76,0,0,0,2.48.72,21.8,21.8,0,0,0,4.17.24A15.49,15.49,0,0,0,372.47,106.08Z" transform="translate(-83.53 -33.67)"/><path class="cls-29" d="M369.26,83.46a23.23,23.23,0,0,1-3.52.37,22.84,22.84,0,0,1-3.61-.16,15.2,15.2,0,0,1,3.61-3.19A13.9,13.9,0,0,1,369.26,83.46Z" transform="translate(-83.53 -33.67)"/><path class="cls-29" d="M360.52,110a3,3,0,0,0-1.37,2,.25.25,0,0,1-.37.08,3.89,3.89,0,0,1,.22-5.44q.19.52.4,1A25.07,25.07,0,0,0,360.52,110Z" transform="translate(-83.53 -33.67)"/><path class="cls-29" d="M370.94,109.63a2.79,2.79,0,0,1,1.37,1.91c0,.13.26.16.37.06a3.69,3.69,0,0,0,1-2.66,3.3,3.3,0,0,0-1.23-2.77q-.19.53-.39,1C371.71,108.06,371.34,108.87,370.94,109.63Z" transform="translate(-83.53 -33.67)"/><path class="cls-29" d="M366.28,110.3a7,7,0,0,1-.36,2.38.21.21,0,0,1-.36,0,6.75,6.75,0,0,1-.37-2.35,5.93,5.93,0,0,1,.55-2.76A5.75,5.75,0,0,1,366.28,110.3Z" transform="translate(-83.53 -33.67)"/><line class="cls-29" x1="282.17" y1="50.16" x2="282.2" y2="73.85"/></g><g class="cls-23"><path class="cls-29" d="M393.68,105.4c1.76-.05,3.75,1.07,5.39,3,.22.26.8.1.95-.28a9.7,9.7,0,0,0-.6-7.44c-1.39-2.94-3.76-4.88-6-5.2.1,1,.17,2,.22,2.92C393.77,100.8,393.78,103.15,393.68,105.4Z" transform="translate(-83.53 -33.67)"/></g></svg>