<?xml version="1.0" encoding="utf-8"?>
<svg version="1.1" xmlns="http://www.w3.org/2000/svg" xmlns:xlink="http://www.w3.org/1999/xlink" viewBox="0 0 32 32">
<style type="text/css">
.st0{fill:#737474;}.st1{fill:#9A9B9B;}.st2{fill:#C3C4C4;}.st11{fill:#49494A;}
.st3{opacity:0.9;}.st4{opacity:0.8;}.st5{opacity:0.7;}.st6{opacity:0.6;}.st7{opacity:0.5;}.st8{opacity:0.4;}.st9{opacity:0.3;}.st10{opacity:0.2;}
</style>
<path class="st0" d="M10,2.7C9.6,2,8.7,1.7,8,2.1s-0.9,1.3-0.5,2l3.3,5.6l2.6-1.5L10,2.7z" />
<path class="st1" d="M4.2,7.5C3.5,7.1,2.5,7.3,2.1,8C1.7,8.7,2,9.6,2.7,10l5.6,3.2l1.5-2.6L4.2,7.5z" />
<g class="st2">
	<path d="M1.5,14.5C0.6,14.5,0,15.2,0,16c0,0.8,0.6,1.5,1.5,1.5H8v-3H1.5z" />
	<path class="st3" d="M8.3,18.7L2.7,22c-0.7,0.4-0.9,1.3-0.5,2s1.3,1,2,0.5l5.6-3.2L8.3,18.7z" />
	<path class="st4" d="M10.7,22.2l-3.3,5.6c-0.4,0.7-0.1,1.7,0.5,2.1c0.7,0.4,1.6,0.1,2-0.6l3.2-5.6L10.7,22.2z" />
	<path class="st5" d="M14.5,24v6.5c0,0.8,0.7,1.5,1.5,1.5c0.8,0,1.5-0.7,1.5-1.5V24H14.5z" />
	<path class="st6" d="M24.5,27.8l-3.2-5.6l-2.6,1.5l3.2,5.6c0.4,0.7,1.3,0.9,2,0.6C24.7,29.4,25,28.5,24.5,27.8z" />
	<path class="st7" d="M29.3,22l-5.6-3.2l-1.5,2.6l5.6,3.2c0.7,0.4,1.7,0.2,2.1-0.5C30.3,23.3,30,22.3,29.3,22z" />
	<path class="st8" d="M30.5,14.5H24v3h6.5c0.8,0,1.5-0.7,1.5-1.5C32,15.2,31.3,14.5,30.5,14.5z" />
	<path class="st9" d="M29.8,8c-0.4-0.7-1.3-0.9-2-0.5l-5.6,3.3l1.5,2.6l5.6-3.2C30,9.6,30.2,8.7,29.8,8z" />
	<path class="st10" d="M24,2.2c-0.7-0.4-1.7-0.2-2,0.5l-3.2,5.6l2.6,1.5l3.2-5.7C25,3.5,24.7,2.6,24,2.2z" />
</g>
<path class="st11" d="M16,0c-0.8,0-1.5,0.6-1.5,1.5V8h3V1.5C17.5,0.6,16.8,0,16,0z" />
</svg>
